<svg width="564" height="330" viewBox="0 0 564 330" fill="none" xmlns="http://www.w3.org/2000/svg">
<rect width="564" height="330" fill="white"/>
<path d="M245.816 93.4614C247.247 94.3814 248.112 95.9659 248.112 97.6673V107.115C248.112 109.226 246.401 110.938 244.289 110.938V110.938C240.392 110.938 237.118 108.006 236.69 104.132L236.088 98.6875H238.741C239.158 98.6875 239.392 98.2055 239.133 97.8776L235.227 92.9314C234.827 92.4244 234.058 92.4244 233.658 92.9314L229.752 97.8776C229.493 98.2055 229.726 98.6875 230.144 98.6875H232.965L232.335 103.758C231.825 107.859 228.34 110.938 224.207 110.938V110.938C221.946 110.938 220.112 109.104 220.112 106.842V97.6673C220.112 95.9659 220.977 94.3814 222.409 93.4614L232.49 86.9804C233.478 86.3451 234.746 86.3451 235.735 86.9804L245.816 93.4614Z" fill="#F33B91"/>
<path d="M136 78.3837C136 85.7526 143.886 90.7351 151.198 89.8182C153.233 89.5631 155.306 89.4316 157.409 89.4316C184.697 89.4318 206.817 111.553 206.817 138.841V192.439C206.817 200.171 200.549 206.439 192.817 206.439V206.439C185.085 206.439 178.817 200.171 178.817 192.439V138.841C178.817 127.017 169.233 117.432 157.409 117.432C145.585 117.432 136 127.017 136 138.841V192.439C136 200.171 129.732 206.439 122 206.439V206.439C114.268 206.439 108 200.171 108 192.439V58C108 50.268 114.268 44 122 44V44C129.732 44 136 50.268 136 58V78.3837Z" fill="url(#paint0_linear_10_55)"/>
<path d="M234.112 115.007C241.844 115.007 248.112 121.275 248.112 129.007V192.439C248.112 200.171 241.844 206.439 234.112 206.439V206.439C226.38 206.439 220.112 200.171 220.112 192.439V129.007C220.112 121.275 226.38 115.007 234.112 115.007V115.007Z" fill="url(#paint1_linear_10_55)"/>
<path d="M326.897 122.54C330.543 115.782 339.055 113.11 345.909 116.573C352.763 120.037 355.364 128.324 351.718 135.082L317.262 198.957C314.651 203.797 309.545 206.539 304.34 206.436C299.135 206.539 294.03 203.797 291.419 198.957L256.963 135.082C253.317 128.324 255.918 120.037 262.772 116.573C269.626 113.11 278.138 115.782 281.784 122.54L304.34 164.355L326.897 122.54Z" fill="url(#paint2_linear_10_55)"/>
<path d="M400.331 112.092C427.061 112.092 448.755 133.646 448.984 160.322H448.987V202.321C448.987 206.187 445.853 209.321 441.987 209.321H433.987C430.121 209.321 426.987 206.187 426.987 202.321V201.455C419.331 206.479 410.173 209.405 400.331 209.405C373.459 209.404 351.675 187.62 351.675 160.748C351.675 133.876 373.459 112.092 400.331 112.092ZM400.331 134.092C385.609 134.092 373.675 146.027 373.675 160.748C373.675 175.47 385.609 187.404 400.331 187.405C415.053 187.405 426.987 175.47 426.987 160.748C426.987 146.027 415.053 134.092 400.331 134.092Z" fill="url(#paint3_linear_10_55)"/>
<path d="M108.397 249V227.182H116.174C117.871 227.182 119.278 227.491 120.393 228.109C121.508 228.727 122.342 229.572 122.896 230.644C123.45 231.71 123.727 232.91 123.727 234.245C123.727 235.587 123.447 236.795 122.886 237.867C122.332 238.933 121.494 239.778 120.371 240.403C119.256 241.021 117.854 241.33 116.163 241.33H110.815V238.538H115.865C116.938 238.538 117.808 238.354 118.475 237.984C119.143 237.608 119.633 237.097 119.945 236.45C120.258 235.804 120.414 235.069 120.414 234.245C120.414 233.421 120.258 232.69 119.945 232.05C119.633 231.411 119.139 230.911 118.464 230.548C117.797 230.186 116.916 230.005 115.822 230.005H111.689V249H108.397ZM135.686 249V227.182H143.463C145.154 227.182 146.556 227.473 147.672 228.055C148.794 228.638 149.632 229.444 150.186 230.474C150.74 231.496 151.017 232.679 151.017 234.021C151.017 235.357 150.736 236.532 150.175 237.548C149.621 238.556 148.783 239.341 147.661 239.902C146.546 240.463 145.143 240.744 143.453 240.744H137.561V237.91H143.155C144.22 237.91 145.086 237.757 145.754 237.452C146.429 237.146 146.922 236.702 147.235 236.12C147.547 235.538 147.704 234.838 147.704 234.021C147.704 233.197 147.544 232.484 147.224 231.88C146.912 231.276 146.418 230.815 145.743 230.495C145.076 230.168 144.199 230.005 143.112 230.005H138.978V249H135.686ZM146.457 239.156L151.848 249H148.098L142.814 239.156H146.457ZM182.075 238.091C182.075 240.42 181.649 242.423 180.796 244.099C179.944 245.768 178.776 247.054 177.291 247.956C175.814 248.851 174.134 249.298 172.252 249.298C170.363 249.298 168.676 248.851 167.192 247.956C165.715 247.054 164.55 245.765 163.698 244.089C162.845 242.413 162.419 240.413 162.419 238.091C162.419 235.761 162.845 233.762 163.698 232.093C164.55 230.417 165.715 229.131 167.192 228.237C168.676 227.335 170.363 226.884 172.252 226.884C174.134 226.884 175.814 227.335 177.291 228.237C178.776 229.131 179.944 230.417 180.796 232.093C181.649 233.762 182.075 235.761 182.075 238.091ZM178.815 238.091C178.815 236.315 178.527 234.82 177.952 233.606C177.384 232.384 176.603 231.461 175.608 230.836C174.621 230.204 173.502 229.888 172.252 229.888C170.995 229.888 169.873 230.204 168.886 230.836C167.899 231.461 167.117 232.384 166.542 233.606C165.974 234.82 165.69 236.315 165.69 238.091C165.69 239.866 165.974 241.365 166.542 242.587C167.117 243.801 167.899 244.724 168.886 245.357C169.873 245.982 170.995 246.294 172.252 246.294C173.502 246.294 174.621 245.982 175.608 245.357C176.603 244.724 177.384 243.801 177.952 242.587C178.527 241.365 178.815 239.866 178.815 238.091ZM194.279 249V227.182H207.809V230.016H197.571V236.663H206.839V239.487H197.571V249H194.279ZM219.957 249V227.182H233.636V230.016H223.249V236.663H232.922V239.487H223.249V246.166H233.764V249H219.957ZM258.033 232.913C257.92 231.905 257.451 231.124 256.627 230.57C255.803 230.009 254.766 229.728 253.516 229.728C252.621 229.728 251.847 229.87 251.194 230.154C250.54 230.431 250.032 230.815 249.67 231.305C249.315 231.788 249.138 232.338 249.138 232.956C249.138 233.474 249.258 233.922 249.5 234.298C249.748 234.675 250.072 234.991 250.469 235.246C250.874 235.495 251.307 235.705 251.769 235.875C252.231 236.038 252.675 236.173 253.101 236.28L255.231 236.834C255.927 237.004 256.641 237.235 257.373 237.526C258.104 237.817 258.782 238.201 259.407 238.677C260.032 239.153 260.537 239.742 260.92 240.445C261.311 241.148 261.506 241.99 261.506 242.97C261.506 244.206 261.187 245.303 260.547 246.262C259.915 247.221 258.996 247.977 257.788 248.531C256.588 249.085 255.135 249.362 253.431 249.362C251.797 249.362 250.384 249.103 249.191 248.585C247.998 248.066 247.064 247.331 246.389 246.379C245.714 245.42 245.341 244.284 245.27 242.97H248.573C248.637 243.759 248.893 244.415 249.34 244.941C249.795 245.46 250.373 245.847 251.077 246.102C251.787 246.351 252.564 246.475 253.41 246.475C254.34 246.475 255.167 246.33 255.892 246.038C256.623 245.74 257.199 245.328 257.618 244.803C258.037 244.27 258.246 243.648 258.246 242.938C258.246 242.292 258.062 241.763 257.692 241.351C257.33 240.939 256.836 240.598 256.211 240.328C255.594 240.058 254.894 239.82 254.113 239.614L251.535 238.911C249.787 238.435 248.403 237.736 247.38 236.812C246.364 235.889 245.856 234.668 245.856 233.148C245.856 231.891 246.197 230.793 246.879 229.856C247.561 228.918 248.484 228.19 249.649 227.672C250.814 227.146 252.128 226.884 253.591 226.884C255.068 226.884 256.371 227.143 257.501 227.661C258.637 228.18 259.532 228.893 260.185 229.803C260.839 230.705 261.18 231.741 261.208 232.913H258.033ZM285.44 232.913C285.326 231.905 284.857 231.124 284.034 230.57C283.21 230.009 282.173 229.728 280.923 229.728C280.028 229.728 279.254 229.87 278.6 230.154C277.947 230.431 277.439 230.815 277.077 231.305C276.722 231.788 276.544 232.338 276.544 232.956C276.544 233.474 276.665 233.922 276.906 234.298C277.155 234.675 277.478 234.991 277.876 235.246C278.281 235.495 278.714 235.705 279.176 235.875C279.637 236.038 280.081 236.173 280.507 236.28L282.638 236.834C283.334 237.004 284.048 237.235 284.779 237.526C285.511 237.817 286.189 238.201 286.814 238.677C287.439 239.153 287.943 239.742 288.327 240.445C288.718 241.148 288.913 241.99 288.913 242.97C288.913 244.206 288.593 245.303 287.954 246.262C287.322 247.221 286.402 247.977 285.195 248.531C283.995 249.085 282.542 249.362 280.838 249.362C279.204 249.362 277.791 249.103 276.598 248.585C275.404 248.066 274.47 247.331 273.796 246.379C273.121 245.42 272.748 244.284 272.677 242.97H275.98C276.044 243.759 276.299 244.415 276.747 244.941C277.201 245.46 277.78 245.847 278.483 246.102C279.193 246.351 279.971 246.475 280.816 246.475C281.747 246.475 282.574 246.33 283.299 246.038C284.03 245.74 284.605 245.328 285.024 244.803C285.443 244.27 285.653 243.648 285.653 242.938C285.653 242.292 285.468 241.763 285.099 241.351C284.737 240.939 284.243 240.598 283.618 240.328C283 240.058 282.301 239.82 281.519 239.614L278.941 238.911C277.194 238.435 275.809 237.736 274.786 236.812C273.771 235.889 273.263 234.668 273.263 233.148C273.263 231.891 273.604 230.793 274.286 229.856C274.968 228.918 275.891 228.19 277.056 227.672C278.22 227.146 279.534 226.884 280.997 226.884C282.475 226.884 283.778 227.143 284.907 227.661C286.044 228.18 286.938 228.893 287.592 229.803C288.245 230.705 288.586 231.741 288.615 232.913H285.44ZM304.239 227.182V249H300.947V227.182H304.239ZM336.085 238.091C336.085 240.42 335.659 242.423 334.807 244.099C333.954 245.768 332.786 247.054 331.302 247.956C329.824 248.851 328.145 249.298 326.263 249.298C324.373 249.298 322.687 248.851 321.202 247.956C319.725 247.054 318.56 245.765 317.708 244.089C316.856 242.413 316.429 240.413 316.429 238.091C316.429 235.761 316.856 233.762 317.708 232.093C318.56 230.417 319.725 229.131 321.202 228.237C322.687 227.335 324.373 226.884 326.263 226.884C328.145 226.884 329.824 227.335 331.302 228.237C332.786 229.131 333.954 230.417 334.807 232.093C335.659 233.762 336.085 235.761 336.085 238.091ZM332.825 238.091C332.825 236.315 332.537 234.82 331.962 233.606C331.394 232.384 330.613 231.461 329.618 230.836C328.631 230.204 327.513 229.888 326.263 229.888C325.005 229.888 323.883 230.204 322.896 230.836C321.909 231.461 321.128 232.384 320.552 233.606C319.984 234.82 319.7 236.315 319.7 238.091C319.7 239.866 319.984 241.365 320.552 242.587C321.128 243.801 321.909 244.724 322.896 245.357C323.883 245.982 325.005 246.294 326.263 246.294C327.513 246.294 328.631 245.982 329.618 245.357C330.613 244.724 331.394 243.801 331.962 242.587C332.537 241.365 332.825 239.866 332.825 238.091ZM365.899 227.182V249H362.874L351.784 232.999H351.581V249H348.289V227.182H351.336L362.437 243.205H362.639V227.182H365.899ZM380.644 249H377.15L385.002 227.182H388.805L396.656 249H393.162L386.994 231.145H386.823L380.644 249ZM381.23 240.456H392.566V243.226H381.23V240.456ZM407.907 249V227.182H411.199V246.166H421.085V249H407.907ZM444.841 232.913C444.727 231.905 444.258 231.124 443.434 230.57C442.611 230.009 441.574 229.728 440.324 229.728C439.429 229.728 438.655 229.87 438.001 230.154C437.348 230.431 436.84 230.815 436.478 231.305C436.123 231.788 435.945 232.338 435.945 232.956C435.945 233.474 436.066 233.922 436.307 234.298C436.556 234.675 436.879 234.991 437.277 235.246C437.682 235.495 438.115 235.705 438.576 235.875C439.038 236.038 439.482 236.173 439.908 236.28L442.039 236.834C442.735 237.004 443.449 237.235 444.18 237.526C444.912 237.817 445.59 238.201 446.215 238.677C446.84 239.153 447.344 239.742 447.728 240.445C448.118 241.148 448.314 241.99 448.314 242.97C448.314 244.206 447.994 245.303 447.355 246.262C446.723 247.221 445.803 247.977 444.596 248.531C443.395 249.085 441.943 249.362 440.238 249.362C438.605 249.362 437.191 249.103 435.998 248.585C434.805 248.066 433.871 247.331 433.196 246.379C432.522 245.42 432.149 244.284 432.078 242.97H435.38C435.444 243.759 435.7 244.415 436.147 244.941C436.602 245.46 437.181 245.847 437.884 246.102C438.594 246.351 439.372 246.475 440.217 246.475C441.147 246.475 441.975 246.33 442.699 246.038C443.431 245.74 444.006 245.328 444.425 244.803C444.844 244.27 445.054 243.648 445.054 242.938C445.054 242.292 444.869 241.763 444.5 241.351C444.138 240.939 443.644 240.598 443.019 240.328C442.401 240.058 441.701 239.82 440.92 239.614L438.342 238.911C436.595 238.435 435.21 237.736 434.187 236.812C433.172 235.889 432.664 234.668 432.664 233.148C432.664 231.891 433.005 230.793 433.687 229.856C434.368 228.918 435.292 228.19 436.456 227.672C437.621 227.146 438.935 226.884 440.398 226.884C441.875 226.884 443.179 227.143 444.308 227.661C445.444 228.18 446.339 228.893 446.993 229.803C447.646 230.705 447.987 231.741 448.015 232.913H444.841Z" fill="#363636"/>
<defs>
<linearGradient id="paint0_linear_10_55" x1="102.957" y1="87.5" x2="206.457" y2="192" gradientUnits="userSpaceOnUse">
<stop stop-color="#066AD6"/>
<stop offset="1" stop-color="#20B3F9"/>
</linearGradient>
<linearGradient id="paint1_linear_10_55" x1="234.112" y1="115.007" x2="248.457" y2="206" gradientUnits="userSpaceOnUse">
<stop stop-color="#15B6FC"/>
<stop offset="1" stop-color="#6D8FFB"/>
</linearGradient>
<linearGradient id="paint2_linear_10_55" x1="271.457" y1="115" x2="343.957" y2="153.5" gradientUnits="userSpaceOnUse">
<stop stop-color="#5890FF"/>
<stop offset="1" stop-color="#FC40F9"/>
</linearGradient>
<linearGradient id="paint3_linear_10_55" x1="361.457" y1="129.5" x2="449.457" y2="196" gradientUnits="userSpaceOnUse">
<stop stop-color="#FE3CE2"/>
<stop offset="1" stop-color="#F73D83"/>
</linearGradient>
</defs>
</svg>
